<svg width="788" height="794" viewBox="0 0 788 794" fill="none" xmlns="http://www.w3.org/2000/svg">
<path fill-rule="evenodd" clip-rule="evenodd" d="M197 740.127C314.767 671.554 394 543.387 394 396.592C394 249.797 314.767 121.63 197 53.0569C254.952 19.3129 322.235 0 394 0C611.6 0 788 177.56 788 396.592C788 615.624 611.6 793.184 394 793.184C322.235 793.184 254.952 773.871 197 740.127ZM689.5 396.592C689.5 451.35 645.4 495.74 591 495.74C536.6 495.74 492.5 451.35 492.5 396.592C492.5 341.834 536.6 297.444 591 297.444C645.4 297.444 689.5 341.834 689.5 396.592ZM197 495.74C251.4 495.74 295.5 451.35 295.5 396.592C295.5 341.834 251.4 297.444 197 297.444C142.6 297.444 98.5 341.834 98.5 396.592C98.5 451.35 142.6 495.74 197 495.74Z" fill="#021322"/>
</svg>
